<svg xmlns="http://www.w3.org/2000/svg" width="261" height="174" viewBox="0 0 261 174" fill="none"><path fill-rule="evenodd" clip-rule="evenodd" d="M138.924 172.874C131.603 173.529 124.385 172.49 117.413 170.331C108.61 167.608 100.111 164.132 93.7869 156.927C93.528 156.633 93.1561 156.396 93.0016 156.055C90.4588 150.488 85.7719 150.812 80.9284 151.663C78.9563 152.009 76.9785 152.023 75.0109 151.891C72.6557 151.733 70.7498 150.083 70.556 148.278C70.3566 146.41 72.2782 143.563 74.2481 143.072C76.9785 142.391 79.7342 141.784 82.5035 141.285C85.2861 140.783 86.9639 139.09 87.1189 136.241C87.711 125.332 91.881 115.913 98.6794 107.468C101.51 103.951 104.794 100.905 107.851 97.6261C109.603 95.7468 109.47 94.9801 106.987 94.2252C102.094 92.7402 97.2357 91.2733 92.696 88.7792C82.6568 83.2622 75.8641 75.2405 72.6905 64.147C69.6427 53.4927 71.7615 43.9427 78.9507 35.6881C84.8199 28.9488 92.6882 26.538 101.425 26.5869C101.821 26.5886 102.219 26.5965 102.615 26.5982C106.433 26.61 106.7 26.0306 107.515 22.1764C109.135 14.5174 113.543 8.67034 120.132 4.49153C123.667 2.25003 127.739 1.3776 131.742 0.755488C135.17 0.223367 138.568 1.59641 141.917 2.4362C153.298 5.29145 160.196 13.0662 164.636 23.4387C168.513 32.4999 170.155 42.0139 170.002 51.8475C169.973 53.8195 169.756 55.7872 169.686 57.7598C169.621 59.6037 170.557 59.6492 171.699 58.6739C176.984 54.1643 183.156 51.2827 189.564 48.842C193.987 47.1579 198.553 46.0447 203.303 45.8653C207.071 45.7219 207.411 45.3236 207.475 41.5527C207.586 34.8758 206.663 28.2879 205.802 21.7034C205.499 19.3937 204.681 17.1196 203.851 14.9225C203.35 13.6012 202.287 12.6477 200.776 12.1961C198.52 11.521 196.308 10.6807 194.107 9.82794C192.209 9.09276 190.437 6.17735 190.816 4.59111C191.42 2.07789 194.351 0.196905 197.033 0.0225229C204.567 -0.468515 210.873 7.13473 212.51 13.7142C214.461 21.556 213.96 29.4152 213.474 37.3137C213.375 38.896 213.436 40.4879 213.389 42.0741C213.286 45.3917 213.472 45.7095 216.582 46.5448C218.026 46.9312 219.5 47.2254 220.976 47.4594C224.74 48.054 226.221 46.7231 227.775 42.4498C230.395 35.251 232.974 27.9943 238.795 22.5285C242.853 18.7199 250.164 17.0864 254.622 19.0096C257.024 20.0456 257.864 21.777 257.674 24.27C257.49 26.6595 256.122 28.1169 254.102 29.0563C251.718 30.165 249.338 29.6435 246.927 28.9877C243.714 28.113 241.386 29.1334 239.509 31.997C237.553 34.9822 236.355 38.3313 234.95 41.5768C234.083 43.5866 233.367 45.6639 232.626 47.7255C232.032 49.3843 232.572 50.7011 234.118 51.4588C244.662 56.6213 250.888 65.515 255.344 75.9599C258.739 83.9209 260.581 92.2025 259.886 100.869C258.458 118.694 250.34 132.428 234.604 141.309C227.95 145.065 220.775 147.032 213.126 147.139C207.141 147.222 201.819 149.072 196.71 152.244C189.39 156.787 182.311 161.809 174.482 165.442C163.258 170.65 151.514 173.837 138.924 172.874ZM142.252 7.9796C135.92 5.92704 129.881 6.41191 124.267 10.1666C119.083 13.6321 115.77 18.3976 114.541 24.558C114.048 27.0201 114.506 28.9663 116.966 30.2977C119.149 31.4778 121.198 32.933 123.199 34.4146C131.477 40.5447 138.943 47.5545 145.478 55.5307C150.109 61.1792 154.124 67.2255 156.835 74.0536C157.737 76.3216 158.538 78.6256 158.908 81.0702C159.022 81.834 159.303 82.9782 160.239 83.0147C161.246 83.0546 161.079 81.8745 161.369 81.1816C161.96 79.7692 161.895 78.2234 162.281 76.7879C163.993 70.4255 163.596 63.9057 163.732 57.442C163.85 51.7991 162.411 46.317 161.42 40.7893C159.979 32.7558 157.774 25.0012 153.873 17.7968C151.966 14.2796 149.484 11.3186 145.687 9.70536C145.765 9.68679 145.842 9.66935 145.919 9.65189C145.902 9.58104 145.904 9.4629 145.865 9.44545C144.669 8.93585 143.696 7.87498 142.252 7.9796ZM210.395 137.692C214.891 137.589 219.27 137.469 223.606 136.403C234.869 133.635 243.188 127.446 247.671 116.476C251.164 107.928 251.996 99.1409 250.212 90.1269C249.421 86.1332 248.327 82.2154 246.928 78.3544C244.304 71.0999 239.943 65.2461 233.771 60.7365C226.033 55.0807 217.011 53.7543 207.828 53.9725C201.331 54.1272 194.835 55.1015 188.662 57.5933C184.111 59.4304 180.249 62.2316 177.532 66.141C174.435 70.5942 172.308 75.682 170.979 80.9745C169.851 85.4672 168.469 89.9621 168.516 94.6623C168.578 100.686 169.83 106.503 171.861 112.164C173.812 117.603 176.6 122.565 180.38 126.926C182.272 129.112 184.782 130.564 187.073 132.277C189.845 134.35 192.867 135.224 195.921 136.239C200.644 137.807 205.594 137.518 210.395 137.692ZM98.3906 34.4995C96.4617 34.4371 93.4931 34.9175 90.5593 36.0734C84.9844 38.2711 80.5566 41.1977 78.3991 47.4167C75.5698 55.5683 78.8754 67.4066 84.5025 72.8218C92.3647 80.389 101.023 86.5264 111.865 89.0109C116.763 90.1326 121.61 90.3553 126.553 89.0317C130.959 87.8511 135.365 86.6338 139.992 86.3442C143.947 86.0972 147.87 85.9419 151.806 86.4032C153.867 86.6445 154.368 85.7124 153.762 83.8832C153.217 82.2396 152.849 80.5178 152.135 78.953C148.286 70.5127 142.525 63.3465 136.517 56.4307C132.588 51.9105 128.11 47.8846 123.592 43.905C116.658 37.7992 108.724 34.7054 98.3906 34.4995ZM178.625 155.478C170.95 151.571 166.759 144.511 162.759 137.398C160.378 133.164 158.461 128.649 156.597 124.151C154.734 119.656 153.42 114.908 152.305 110.218C151.259 105.819 150.486 101.258 150.035 96.6991C149.824 94.5695 148.915 93.3719 146.492 93.4428C143.181 93.5401 139.876 93.1925 136.598 94.12C134.613 94.682 133.418 95.5257 133.482 97.801C133.687 105.169 134.082 112.489 135.865 119.701C137.683 127.049 140.292 134.047 144.119 140.569C148.398 147.855 153.869 154.138 160.059 159.877C162.662 162.292 165.547 162.472 168.252 161.266C171.73 159.717 175.585 158.743 178.625 155.478ZM100.709 128.462C100.698 132.198 101.035 135.919 101.895 139.542C102.547 142.293 103.457 145.006 104.51 147.632C106.555 152.744 109.152 157.72 114.226 160.281C121.384 163.895 129.088 165.843 137.211 165.575C137.78 165.556 138.626 165.968 138.881 165.164C139.104 164.459 138.305 164.113 137.877 163.695C126.537 152.605 119.596 139.3 117.858 123.452C117.518 120.34 116.6 117.245 117.218 114.043C117.936 110.311 118.406 106.546 118.406 102.736C118.407 102.054 118.735 101.165 118.009 100.769C117.266 100.364 116.556 100.804 115.853 101.303C113.769 102.78 111.532 104.049 109.498 105.59C106.689 107.717 103.805 109.918 102.836 113.536C101.529 118.413 100.508 123.357 100.709 128.462Z" fill="black"></path><path fill-rule="evenodd" clip-rule="evenodd" d="M22.0952 131.956C26.2478 131.855 29.3051 134.937 31.0448 138.265C32.1788 140.43 28.334 144.631 25.485 144.538C22.904 144.455 20.5741 143.664 18.5283 142.059C16.6377 140.576 16.1175 138.366 17.0443 135.681C17.8998 133.198 19.6433 131.913 22.0952 131.956Z" fill="black"></path><path fill-rule="evenodd" clip-rule="evenodd" d="M49.5063 152.792C45.1924 152.44 42.4777 150.776 42.4563 147.419C42.4389 144.543 43.8011 142.92 46.6731 142.884C48.73 142.857 50.8004 142.787 52.8439 142.977C55.3227 143.206 57.2892 145.035 57.4572 146.966C57.6391 149.067 57.3218 151.105 55.0149 151.716C53.2253 152.189 51.4335 152.928 49.5063 152.792Z" fill="black"></path><path fill-rule="evenodd" clip-rule="evenodd" d="M4.83753 125.259C2.229 125.31 0.0209636 122.749 0.000170726 119.645C-0.0251036 116.067 2.75923 112.914 6.09746 112.741C8.66727 112.606 11.6066 115.834 11.6223 118.809C11.6375 121.685 7.94374 125.198 4.83753 125.259Z" fill="black"></path><path fill-rule="evenodd" clip-rule="evenodd" d="M210.395 137.692C205.594 137.518 200.644 137.807 195.921 136.239C192.867 135.225 189.845 134.35 187.073 132.277C184.782 130.564 182.272 129.112 180.38 126.927C176.6 122.566 173.812 117.603 171.861 112.164C169.83 106.504 168.577 100.686 168.516 94.6624C168.469 89.9622 169.851 85.4673 170.979 80.9747C172.308 75.6822 174.435 70.5944 177.532 66.1412C180.249 62.2318 184.111 59.4306 188.662 57.5935C194.835 55.1016 201.331 54.1274 207.828 53.9727C217.011 53.7545 226.033 55.0808 233.771 60.7367C239.943 65.2462 244.304 71.1001 246.928 78.3546C248.327 82.2155 249.421 86.1334 250.212 90.127C251.996 99.141 251.164 107.928 247.671 116.476C243.188 127.446 234.869 133.635 223.606 136.403C219.27 137.469 214.891 137.589 210.395 137.692ZM219.775 114.478C221.515 114.328 223.21 114.367 224.814 114.006C228.177 113.252 231.244 111.955 232.913 108.567C233.833 106.695 233.282 105.034 231.866 103.958C230.366 102.818 228.868 103.602 227.811 105.051C227.432 105.571 226.96 105.936 226.451 106.325C223.194 108.806 219.55 108 216.028 107.443C214.825 107.253 213.732 106.179 213.374 104.682C212.928 102.83 211.042 103.533 209.877 102.941C208.841 102.415 208.394 103.58 207.99 104.276C206.871 106.194 207.721 109.624 209.586 111.049C212.621 113.367 216.153 114.18 219.775 114.478ZM212.485 93.5015C212.489 90.0612 209.01 86.9422 205.155 86.9259C201.372 86.9113 198.703 89.3249 198.736 92.7303C198.773 96.7257 201.85 99.7941 205.786 99.7592C208.983 99.7311 212.483 96.4624 212.485 93.5015ZM232.523 98.1865C235.993 98.1921 239.623 94.7378 239.672 91.3837C239.716 88.2674 236.204 85.2339 232.51 85.2665C228.897 85.2997 226.271 87.5941 226.215 91.1463C226.153 95.054 228.996 98.1797 232.523 98.1865Z" fill="#FFCD17"></path><path fill-rule="evenodd" clip-rule="evenodd" d="M178.625 155.478C175.585 158.744 171.73 159.717 168.252 161.266C165.547 162.472 162.662 162.292 160.059 159.877C153.869 154.138 148.398 147.855 144.119 140.569C140.292 134.047 137.683 127.049 135.864 119.701C134.082 112.49 133.687 105.169 133.482 97.8012C133.418 95.5259 134.612 94.6821 136.598 94.1202C139.876 93.1926 143.181 93.5402 146.492 93.443C148.915 93.3721 149.824 94.5696 150.035 96.6992C150.486 101.258 151.259 105.819 152.305 110.218C153.42 114.908 154.734 119.656 156.597 124.151C158.461 128.65 160.378 133.165 162.759 137.399C166.759 144.511 170.95 151.571 178.625 155.478Z" fill="#FFCD17"></path><path fill-rule="evenodd" clip-rule="evenodd" d="M100.711 128.462C100.508 123.357 101.529 118.412 102.836 113.536C103.805 109.918 106.689 107.717 109.498 105.59C111.532 104.049 113.769 102.78 115.853 101.302C116.556 100.804 117.266 100.364 118.009 100.769C118.735 101.165 118.407 102.054 118.406 102.736C118.406 106.546 117.936 110.311 117.218 114.042C116.6 117.245 117.518 120.34 117.858 123.452C119.596 139.3 126.537 152.605 137.877 163.694C138.305 164.113 139.104 164.459 138.882 165.164C138.626 165.967 137.78 165.556 137.211 165.575C129.088 165.843 121.384 163.895 114.226 160.281C109.152 157.72 106.555 152.744 104.51 147.632C103.457 145.006 102.547 142.293 101.895 139.542C101.035 135.919 100.698 132.198 100.711 128.462Z" fill="#FFCD17"></path><path fill-rule="evenodd" clip-rule="evenodd" d="M145.687 9.70532C144.68 8.94759 143.539 8.5066 142.318 8.24505C142.247 8.2293 142.183 8.17248 142.115 8.13422C142.157 8.08025 142.2 8.02565 142.247 7.97563C143.696 7.87492 144.669 8.93581 145.865 9.4454C145.904 9.46286 145.902 9.581 145.919 9.65185C145.842 9.6693 145.765 9.68674 145.687 9.70532Z" fill="#FFCD17"></path><path fill-rule="evenodd" clip-rule="evenodd" d="M219.775 114.478C216.153 114.18 212.621 113.367 209.586 111.049C207.721 109.624 206.871 106.194 207.99 104.276C208.394 103.58 208.841 102.415 209.877 102.941C211.041 103.533 212.928 102.83 213.374 104.682C213.732 106.179 214.825 107.253 216.028 107.443C219.55 108 223.194 108.806 226.451 106.325C226.96 105.936 227.432 105.571 227.811 105.051C228.868 103.602 230.366 102.818 231.866 103.958C233.282 105.034 233.833 106.695 232.913 108.567C231.244 111.955 228.177 113.252 224.814 114.006C223.21 114.367 221.515 114.328 219.775 114.478Z" fill="black"></path><path fill-rule="evenodd" clip-rule="evenodd" d="M212.485 93.5013C212.484 96.4622 208.983 99.7309 205.786 99.759C201.85 99.7939 198.773 96.7255 198.737 92.7301C198.703 89.3247 201.372 86.9111 205.155 86.9257C209.01 86.942 212.489 90.061 212.485 93.5013Z" fill="black"></path><path fill-rule="evenodd" clip-rule="evenodd" d="M232.523 98.1863C228.996 98.1796 226.153 95.0538 226.215 91.1461C226.271 87.5939 228.897 85.2995 232.51 85.2663C236.204 85.2337 239.716 88.2672 239.672 91.3835C239.623 94.7376 235.993 98.1919 232.523 98.1863Z" fill="black"></path></svg>