<svg width="1579" height="1049" viewBox="0 0 1579 1049" fill="none" xmlns="http://www.w3.org/2000/svg">
<path fill-rule="evenodd" clip-rule="evenodd" d="M843.186 1047.76C798.75 1051.73 754.942 1045.44 712.628 1032.35C659.199 1015.84 607.614 994.776 569.23 951.11C567.659 949.328 565.402 947.889 564.464 945.827C549.031 912.082 520.584 914.049 491.187 919.208C479.217 921.304 467.213 921.389 455.271 920.588C440.977 919.63 429.409 909.627 428.233 898.688C427.023 887.366 438.686 870.112 450.642 867.136C467.213 863.007 483.939 859.332 500.747 856.308C517.635 853.263 527.819 843.005 528.76 825.734C532.353 759.616 557.663 702.529 598.925 651.344C616.107 630.03 636.037 611.569 654.593 591.697C665.223 580.307 664.415 575.66 649.346 571.085C619.652 562.084 590.163 553.193 562.609 538.077C501.677 504.639 460.45 456.021 441.188 388.785C422.69 324.211 435.549 266.33 479.183 216.3C514.806 175.455 562.562 160.843 615.588 161.14C617.995 161.15 620.406 161.197 622.813 161.208C645.985 161.279 647.604 157.768 652.551 134.408C662.383 87.9884 689.138 52.55 729.128 27.2229C750.586 13.6375 775.299 8.34985 799.596 4.57935C820.399 1.35425 841.025 9.67607 861.354 14.7659C930.427 32.0711 972.295 79.1928 999.239 142.058C1022.78 196.977 1032.74 254.64 1031.81 314.24C1031.63 326.192 1030.32 338.118 1029.89 350.073C1029.49 361.249 1035.18 361.525 1042.11 355.614C1074.19 328.282 1111.65 310.817 1150.54 296.024C1177.39 285.817 1205.1 279.07 1233.93 277.983C1256.8 277.113 1258.86 274.7 1259.25 251.845C1259.92 211.377 1254.32 171.449 1249.09 131.541C1247.26 117.543 1242.29 103.76 1237.25 90.4432C1234.21 82.4351 1227.76 76.6563 1218.59 73.9189C1204.89 69.8275 1191.47 64.7344 1178.12 59.566C1166.6 55.1102 1155.84 37.4404 1158.14 27.8264C1161.8 12.5942 1179.6 1.19386 1195.87 0.136963C1241.6 -2.83914 1279.87 43.2429 1289.81 83.1202C1301.65 130.648 1298.61 178.281 1295.66 226.153C1295.06 235.743 1295.43 245.391 1295.14 255.005C1294.52 275.112 1295.65 277.038 1314.52 282.101C1323.29 284.443 1332.23 286.226 1341.19 287.644C1364.04 291.248 1373.02 283.182 1382.46 257.282C1398.36 213.651 1414.01 169.669 1449.34 136.542C1473.97 113.459 1518.35 103.558 1545.4 115.214C1559.98 121.494 1565.08 131.987 1563.93 147.097C1562.81 161.579 1554.51 170.413 1542.25 176.106C1527.78 182.825 1513.33 179.665 1498.7 175.69C1479.2 170.389 1465.07 176.573 1453.68 193.929C1441.8 212.022 1434.53 232.32 1426 251.991C1420.74 264.172 1416.4 276.762 1411.9 289.257C1408.29 299.311 1411.57 307.292 1420.96 311.884C1484.95 343.173 1522.74 397.076 1549.79 460.381C1570.39 508.632 1581.57 558.825 1577.35 611.354C1568.68 719.385 1519.41 802.627 1423.9 856.454C1383.52 879.214 1339.97 891.136 1293.55 891.787C1257.22 892.292 1224.92 903.505 1193.91 922.726C1149.48 950.262 1106.52 980.699 1059 1002.72C990.876 1034.28 919.596 1053.6 843.186 1047.76ZM863.385 48.3635C824.954 35.9233 788.302 38.862 754.227 61.6185C722.763 82.6224 702.656 111.505 695.196 148.843C692.203 163.765 694.985 175.561 709.914 183.63C723.162 190.783 735.599 199.602 747.742 208.582C797.987 245.735 843.302 288.221 882.965 336.563C911.07 370.798 935.442 407.443 951.895 448.828C957.37 462.574 962.232 476.538 964.475 491.354C965.167 495.984 966.872 502.918 972.555 503.14C978.664 503.381 977.651 496.229 979.414 492.029C982.997 483.469 982.608 474.1 984.947 465.4C995.338 426.838 992.931 387.323 993.756 348.147C994.472 313.946 985.734 280.72 979.721 247.218C970.979 198.528 957.591 151.529 933.915 107.864C922.344 86.5465 907.275 68.6006 884.233 58.8231C884.703 58.7105 885.174 58.6048 885.641 58.499C885.535 58.0696 885.549 57.3536 885.313 57.2478C878.055 54.1592 872.147 47.7294 863.385 48.3635ZM1276.97 834.527C1304.26 833.903 1330.84 833.176 1357.16 826.716C1425.51 809.939 1476 772.428 1503.22 705.942C1524.42 654.136 1529.47 600.878 1518.64 546.245C1513.84 522.04 1507.2 498.295 1498.71 474.894C1482.78 430.926 1456.31 395.446 1418.85 368.115C1371.88 333.836 1317.13 325.797 1261.39 327.119C1221.96 328.057 1182.53 333.962 1145.07 349.064C1117.44 360.199 1094 377.177 1077.51 400.871C1058.72 427.861 1045.81 458.697 1037.74 490.774C1030.89 518.003 1022.51 545.246 1022.79 573.734C1023.16 610.239 1030.76 645.501 1043.09 679.807C1054.93 712.771 1071.86 742.85 1094.8 769.281C1106.28 782.526 1121.52 791.329 1135.42 801.71C1152.24 814.276 1170.59 819.574 1189.12 825.724C1217.79 835.229 1247.83 833.473 1276.97 834.527ZM597.172 209.097C585.465 208.718 567.447 211.63 549.641 218.636C515.805 231.955 488.93 249.693 475.835 287.385C458.663 336.791 478.726 408.541 512.88 441.362C560.598 487.225 613.147 524.423 678.955 539.481C708.68 546.28 738.101 547.629 768.099 539.608C794.84 532.452 821.585 525.074 849.667 523.319C873.675 521.822 897.481 520.881 921.369 523.676C933.877 525.139 936.922 519.49 933.243 508.403C929.933 498.442 927.7 488.006 923.367 478.522C900.007 427.367 865.042 383.934 828.574 342.018C804.73 314.622 777.552 290.222 750.129 266.102C708.046 229.095 659.891 210.344 597.172 209.097ZM1084.14 942.329C1037.56 918.648 1012.13 875.856 987.848 832.751C973.4 807.089 961.761 779.724 950.449 752.457C939.141 725.214 931.167 696.441 924.4 668.011C918.049 641.351 913.361 613.706 910.623 586.078C909.341 573.171 903.825 565.913 889.118 566.343C869.024 566.932 848.961 564.825 829.065 570.447C817.017 573.853 809.769 578.967 810.158 592.757C811.402 637.411 813.799 681.781 824.616 725.49C835.655 770.021 851.487 812.438 874.718 851.968C900.689 896.127 933.891 934.204 971.464 968.988C987.262 983.624 1004.77 984.715 1021.19 977.409C1042.3 968.02 1065.69 962.119 1084.14 942.329ZM611.245 778.585C611.174 801.232 613.219 823.784 618.442 845.743C622.4 862.414 627.923 878.856 634.312 894.777C646.724 925.76 662.485 955.918 693.284 971.436C736.727 993.34 783.484 1005.15 832.788 1003.52C836.242 1003.41 841.376 1005.9 842.927 1001.03C844.277 996.76 839.426 994.663 836.828 992.127C768.003 924.914 725.876 844.273 715.328 748.223C713.262 729.36 707.695 710.606 711.441 691.194C715.798 668.581 718.652 645.76 718.652 622.669C718.662 618.534 720.649 613.144 716.245 610.747C711.735 608.289 707.425 610.959 703.16 613.979C690.509 622.932 676.933 630.626 664.589 639.964C647.536 652.854 630.037 666.198 624.152 688.122C616.223 717.68 610.021 747.647 611.245 778.585Z" fill="black"/>
<path fill-rule="evenodd" clip-rule="evenodd" d="M134.105 799.766C159.309 799.149 177.865 817.828 188.424 838.004C195.307 851.126 171.971 876.586 154.679 876.02C139.014 875.515 124.873 870.725 112.456 860.999C100.981 852.009 97.8243 838.611 103.449 822.338C108.642 807.294 119.224 799.5 134.105 799.766Z" fill="black"/>
<path fill-rule="evenodd" clip-rule="evenodd" d="M300.473 926.049C274.291 923.915 257.814 913.828 257.685 893.485C257.579 876.05 265.846 866.218 283.278 865.997C295.762 865.836 308.328 865.41 320.731 866.559C335.776 867.95 347.711 879.033 348.731 890.737C349.835 903.474 347.909 915.825 333.907 919.524C323.046 922.395 312.17 926.874 300.473 926.049Z" fill="black"/>
<path fill-rule="evenodd" clip-rule="evenodd" d="M29.3609 759.176C13.5287 759.487 0.127236 743.961 0.0010362 725.149C-0.152364 703.463 16.7469 684.355 37.0079 683.305C52.6051 682.486 70.4452 702.052 70.5406 720.083C70.6327 737.511 48.2137 758.805 29.3609 759.176Z" fill="black"/>
<path fill-rule="evenodd" clip-rule="evenodd" d="M1276.97 834.527C1247.83 833.473 1217.79 835.229 1189.12 825.724C1170.59 819.574 1152.24 814.276 1135.42 801.71C1121.52 791.329 1106.28 782.526 1094.8 769.281C1071.86 742.85 1054.93 712.771 1043.09 679.807C1030.76 645.501 1023.16 610.239 1022.79 573.733C1022.51 545.246 1030.89 518.003 1037.74 490.774C1045.81 458.697 1058.72 427.861 1077.51 400.871C1094 377.176 1117.44 360.199 1145.07 349.064C1182.53 333.962 1221.96 328.057 1261.39 327.119C1317.13 325.797 1371.88 333.835 1418.85 368.115C1456.31 395.446 1482.78 430.926 1498.7 474.894C1507.2 498.295 1513.84 522.04 1518.64 546.245C1529.47 600.878 1524.42 654.136 1503.22 705.942C1476 772.428 1425.51 809.939 1357.16 826.716C1330.84 833.176 1304.26 833.903 1276.97 834.527ZM1333.9 693.833C1344.46 692.922 1354.75 693.157 1364.49 690.972C1384.9 686.404 1403.51 678.542 1413.64 658.009C1419.23 646.66 1415.88 636.592 1407.28 630.074C1398.18 623.163 1389.09 627.912 1382.68 636.694C1380.38 639.851 1377.51 642.061 1374.42 644.416C1354.65 659.454 1332.54 654.569 1311.16 651.197C1303.86 650.045 1297.22 643.533 1295.05 634.461C1292.35 623.238 1280.9 627.496 1273.83 623.91C1267.54 620.719 1264.83 627.779 1262.37 632C1255.59 643.622 1260.74 664.411 1272.06 673.05C1290.48 687.096 1311.92 692.029 1333.9 693.833ZM1289.66 566.697C1289.68 545.846 1268.56 526.942 1245.17 526.843C1222.21 526.755 1206.01 541.384 1206.21 562.023C1206.43 586.238 1225.11 604.835 1249 604.624C1268.4 604.454 1289.65 584.643 1289.66 566.697ZM1411.28 595.092C1432.34 595.126 1454.37 574.19 1454.66 553.861C1454.93 534.974 1433.62 516.589 1411.19 516.786C1389.27 516.988 1373.33 530.893 1372.99 552.423C1372.61 576.106 1389.87 595.051 1411.28 595.092Z" fill="#FFCD17"/>
<path fill-rule="evenodd" clip-rule="evenodd" d="M1084.14 942.328C1065.69 962.119 1042.3 968.02 1021.19 977.409C1004.77 984.715 987.262 983.624 971.464 968.988C933.891 934.204 900.689 896.127 874.718 851.968C851.487 812.438 835.655 770.021 824.616 725.49C813.799 681.781 811.402 637.41 810.158 592.757C809.769 578.966 817.017 573.853 829.065 570.447C848.961 564.825 869.024 566.932 889.118 566.342C903.825 565.913 909.341 573.171 910.623 586.078C913.361 613.706 918.049 641.351 924.4 668.011C931.167 696.44 939.141 725.214 950.449 752.457C961.761 779.724 973.4 807.089 987.848 832.75C1012.13 875.856 1037.56 918.648 1084.14 942.328Z" fill="#FFCD17"/>
<path fill-rule="evenodd" clip-rule="evenodd" d="M611.255 778.588C610.021 747.647 616.223 717.68 624.152 688.122C630.037 666.198 647.536 652.854 664.589 639.964C676.933 630.626 690.509 622.932 703.16 613.979C707.425 610.958 711.735 608.289 716.245 610.747C720.649 613.144 718.662 618.534 718.652 622.669C718.652 645.76 715.798 668.581 711.441 691.194C707.695 710.606 713.262 729.36 715.328 748.223C725.876 844.273 768.003 924.914 836.828 992.127C839.426 994.663 844.277 996.76 842.927 1001.03C841.376 1005.9 836.242 1003.41 832.788 1003.52C783.484 1005.15 736.727 993.34 693.284 971.436C662.485 955.917 646.724 925.76 634.312 894.777C627.923 878.856 622.4 862.413 618.442 845.743C613.219 823.784 611.174 801.232 611.255 778.588Z" fill="#FFCD17"/>
<path fill-rule="evenodd" clip-rule="evenodd" d="M884.233 58.8232C878.123 54.2307 871.196 51.558 863.784 49.9728C863.352 49.8773 862.963 49.5329 862.55 49.301C862.809 48.9739 863.068 48.643 863.352 48.3398C872.147 47.7294 878.055 54.1593 885.313 57.2479C885.549 57.3537 885.535 58.0697 885.641 58.4991C885.174 58.6049 884.703 58.7106 884.233 58.8232Z" fill="#FFCD17"/>
<path fill-rule="evenodd" clip-rule="evenodd" d="M1333.9 693.833C1311.92 692.029 1290.48 687.096 1272.06 673.05C1260.74 664.411 1255.59 643.622 1262.37 632C1264.83 627.779 1267.54 620.719 1273.83 623.91C1280.9 627.496 1292.35 623.238 1295.05 634.461C1297.22 643.533 1303.86 650.045 1311.16 651.197C1332.54 654.569 1354.65 659.454 1374.42 644.416C1377.51 642.061 1380.38 639.851 1382.68 636.694C1389.09 627.912 1398.18 623.163 1407.28 630.074C1415.88 636.592 1419.23 646.66 1413.64 658.009C1403.51 678.542 1384.9 686.404 1364.49 690.972C1354.75 693.157 1344.46 692.922 1333.9 693.833Z" fill="black"/>
<path fill-rule="evenodd" clip-rule="evenodd" d="M1289.66 566.697C1289.65 584.643 1268.4 604.454 1249 604.624C1225.11 604.835 1206.43 586.238 1206.21 562.023C1206.01 541.384 1222.21 526.755 1245.17 526.843C1268.56 526.942 1289.68 545.846 1289.66 566.697Z" fill="black"/>
<path fill-rule="evenodd" clip-rule="evenodd" d="M1411.28 595.092C1389.87 595.051 1372.61 576.106 1372.99 552.423C1373.33 530.893 1389.27 516.988 1411.19 516.786C1433.62 516.589 1454.93 534.974 1454.66 553.861C1454.37 574.19 1432.34 595.126 1411.28 595.092Z" fill="black"/>
</svg>
