<svg xmlns="http://www.w3.org/2000/svg" xmlns:xlink="http://www.w3.org/1999/xlink" xmlns:inkscape="http://www.inkscape.org/namespaces/inkscape" version="1.1" width="5104.3625" height="2097.0509" viewBox="0 0 5104.3625 2097.0509">
<path transform="matrix(1,0,0,-1,1,2096.0509)" d="M108.2424 771.2263V930.3236C109.241 1042.3875 135.5499 1132.0258 187.1685 1199.1768 238.784 1266.3244 310.3157 1299.9016 401.8972 1299.9016 440.7962 1299.9016 477.9394 1294.2664 513.3951 1283.1111 548.9736 1271.9019 574.5971 1260.4402 590.3169 1248.7876L615.1224 1232.7506 524.4239 1050.0922C500.989 1063.7461 475.1884 1070.6394 446.9975 1070.6394 414.9238 1070.6394 393.5004 1059.6757 382.8535 1037.8123 372.1416 1015.8979 366.8165 977.6809 366.8165 923.0655V771.2263H539.2029V574.0279H366.8165V21.8018H108.2424V574.0279H0V771.2263Z"/>
<path transform="matrix(1,0,0,-1,1,2096.0509)" d="M636.9619 1188.9014C667.1537 1219.0966 703.1684 1234.254 744.9517 1234.254 786.8577 1234.254 822.8758 1219.0966 852.9415 1188.9014 883.137 1158.6447 898.2941 1122.565 898.2941 1080.6593 898.2941 1038.8829 883.137 1002.8611 852.9415 972.6761 822.8758 942.6104 786.8577 927.5757 744.9517 927.5757 703.1684 927.5757 667.1537 942.6104 636.9619 972.6761 606.7086 1002.8611 591.6093 1038.8829 591.6093 1080.6593 591.6093 1122.565 606.7086 1158.6447 636.9619 1188.9014ZM612.1565 771.2263V771.2263 21.8018H870.7377V771.2263Z"/>
<path transform="matrix(1,0,0,-1,1,2096.0509)" d="M1920.9832 21.8018H1608.281L1443.1598 233.5167 1278.294 21.8018H965.5951L1285.5591 413.168 1010.9409 771.2263H1313.3713L1443.1598 597.3299 1573.2003 771.2263H1875.6272L1601.0127 413.168Z"/>
<path transform="matrix(1,0,0,-1,1,2096.0509)" d="M2779.8055 677.514C2849.9703 600.6538 2885.041 506.6926 2885.041 395.6312 2885.041 284.7025 2849.9703 190.9868 2779.8055 114.5049 2709.6614 38.1489 2620.5174 0 2512.466 0 2413.0574 0 2331.3116 35.4489 2267.1673 106.4829H2264.1605V21.8018H2008.5894V1278.1032H2267.1673V699.558C2331.3116 761.8306 2413.0574 793.0247 2512.466 793.0247 2620.5174 793.0247 2709.6614 754.5008 2779.8055 677.514ZM2562.0804 269.3509V269.3509C2594.2803 301.919 2610.44 344.0123 2610.44 395.6312 2610.44 447.2532 2593.5267 489.5921 2559.8236 522.6681 2526.2496 555.8703 2484.6575 572.5244 2435.0433 572.5244 2386.4383 572.5244 2345.2174 555.8703 2311.5177 522.6681 2277.9437 489.5921 2261.1536 447.2532 2261.1536 395.6312 2261.1536 345.0249 2277.4425 303.177 2310.0145 270.1009 2342.712 237.0283 2384.4302 220.4901 2435.0433 220.4901 2487.661 220.4901 2530.01 236.7828 2562.0804 269.3509"/>
<path transform="matrix(1,0,0,-1,1,2096.0509)" d="M3764.448 360.8096H3220.984C3220.984 308.1917 3238.0128 269.1632 3272.098 243.792 3306.1695 218.5537 3343.132 205.9637 3383.088 205.9637 3424.994 205.9637 3458.0665 211.5306 3482.309 222.747 3506.682 233.8917 3534.494 256.0652 3565.746 289.1412L3752.6693 195.6847C3674.81 65.2113 3545.2637 0 3364.0477 0 3251.1075 0 3154.2008 38.6433 3073.396 116.0084 2992.5296 193.4892 2952.1273 286.6969 2952.1273 395.6312 2952.1273 504.6846 2992.5296 598.1513 3073.396 676.0108 3154.2008 753.9962 3251.1075 793.0247 3364.0477 793.0247 3482.8138 793.0247 3579.407 758.694 3653.9525 690.0463 3728.4266 621.3849 3765.6925 523.2308 3765.6925 395.6312 3765.6925 378.2169 3765.2593 366.6359 3764.448 360.8096ZM3228.242 503.8733V503.8733H3513.1285C3507.2442 542.7757 3491.8927 572.654 3467.0294 593.5728 3442.2818 614.6178 3410.406 625.142 3371.319 625.142 3328.5338 625.142 3294.4586 613.9395 3269.0909 591.575 3243.839 569.1424 3230.25 539.9563 3228.242 503.8733"/>
<path transform="matrix(1,0,0,-1,1,2096.0509)" d="M4645.2429 360.8096H4101.7785C4101.7785 308.1917 4118.8176 269.1632 4152.8928 243.792 4186.974 218.5537 4223.927 205.9637 4263.8928 205.9637 4305.8024 205.9637 4338.875 211.5306 4363.1145 222.747 4387.4865 233.8917 4415.299 256.0652 4446.5515 289.1412L4633.474 195.6847C4555.6047 65.2113 4426.0686 0 4244.856 0 4131.9157 0 4035.0057 38.6433 3954.201 116.0084 3873.338 193.4892 3832.9322 286.6969 3832.9322 395.6312 3832.9322 504.6846 3873.338 598.1513 3954.201 676.0108 4035.0057 753.9962 4131.9157 793.0247 4244.856 793.0247 4363.622 793.0247 4460.2116 758.694 4534.747 690.0463 4609.235 621.3849 4646.5007 523.2308 4646.5007 395.6312 4646.5007 378.2169 4646.064 366.6359 4645.2429 360.8096ZM4109.047 503.8733V503.8733H4393.933C4388.0529 542.7757 4372.7009 572.654 4347.834 593.5728 4323.09 614.6178 4291.2009 625.142 4252.114 625.142 4209.3386 625.142 4175.2536 613.9395 4149.8859 591.575 4124.644 569.1424 4111.0549 539.9563 4109.047 503.8733"/>
<path transform="matrix(1,0,0,-1,1,2096.0509)" d="M4934.2307 334.5007C4980.964 334.5007 5020.6745 318.0818 5053.242 285.3808 5085.94 252.8127 5102.3625 213.1024 5102.3625 166.369 5102.3625 120.5768 5085.94 81.4289 5053.242 48.8608 5020.6745 16.2788 4980.964 0 4934.2307 0 4888.4348 0 4849.29 16.2788 4816.722 48.8608 4784.14 81.4289 4767.8615 120.5768 4767.8615 166.369 4767.8615 213.1024 4784.14 252.8127 4816.722 285.3808 4849.29 318.0818 4888.4348 334.5007 4934.2307 334.5007"/>
<path transform="matrix(1,0,0,-1,1,2096.0509)" d="M3792.973 1047.2896C3748.537 1043.321 3704.729 1049.6146 3662.4144 1062.699 3608.9857 1079.2063 3557.401 1100.2752 3519.017 1143.9403 3517.4454 1145.7232 3515.1883 1147.1618 3514.2508 1149.2243 3498.8175 1182.9685 3470.371 1181.0015 3440.9735 1175.8433 3429.004 1173.7466 3417 1173.6615 3405.0577 1174.4627 3390.7633 1175.4207 3379.1956 1185.4234 3378.0196 1196.3633 3376.8094 1207.6852 3388.4722 1224.9391 3400.4283 1227.9152 3417 1232.044 3433.7257 1235.719 3450.5333 1238.743 3467.422 1241.7874 3477.6055 1252.0457 3478.5465 1269.3167 3482.1397 1335.4345 3507.4495 1392.5214 3548.7113 1443.7069 3565.8934 1465.0211 3585.8236 1483.482 3604.3795 1503.354 3615.0096 1514.7442 3614.2017 1519.3911 3599.1329 1523.9662 3569.4388 1532.9666 3539.9493 1541.8576 3512.396 1556.9739 3451.4637 1590.4114 3410.2364 1639.0298 3390.9744 1706.2659 3372.4764 1770.8394 3385.3358 1828.7206 3428.97 1878.7504 3464.5928 1919.596 3512.3485 1934.2077 3565.375 1933.9113 3567.782 1933.901 3570.1925 1933.8534 3572.599 1933.8429 3595.7713 1933.7715 3597.3907 1937.283 3602.3375 1960.6428 3612.1697 2007.0624 3638.925 2042.5009 3678.9149 2067.828 3700.3724 2081.4134 3725.0855 2086.701 3749.3829 2090.4715 3770.1856 2093.6966 3790.8114 2085.3748 3811.1405 2080.285 3880.2139 2062.9798 3922.082 2015.858 3949.0252 1952.9923 3972.562 1898.0739 3982.5238 1840.4107 3981.5963 1780.8112 3981.4193 1768.8587 3980.1033 1756.9332 3979.6805 1744.9773 3979.2816 1733.802 3984.9647 1733.5259 3991.8958 1739.4373 4023.9727 1766.7689 4061.4364 1784.234 4100.3249 1799.0266 4127.1726 1809.2337 4154.8825 1815.9806 4183.7136 1817.068 4206.5827 1817.9374 4208.6486 1820.3511 4209.037 1843.2062 4209.7058 1883.6734 4204.104 1923.6019 4198.878 1963.5097 4197.0437 1977.508 4192.076 1991.2913 4187.0378 2004.6076 4183.9968 2012.6157 4177.55 2018.3944 4168.3757 2021.1318 4154.681 2025.2232 4141.256 2030.3164 4127.902 2035.4848 4116.3825 2039.9406 4105.6228 2057.6104 4107.924 2067.2244 4111.589 2082.4566 4129.3815 2093.857 4145.66 2094.9139 4191.3845 2097.89 4229.6599 2051.8079 4239.597 2011.9306 4251.4377 1964.403 4248.393 1916.7698 4245.4475 1868.898 4244.847 1859.3079 4245.212 1849.6599 4244.929 1840.0459 4244.305 1819.9386 4245.4338 1818.0125 4264.3107 1812.9498 4273.0725 1810.6076 4282.021 1808.8245 4290.9807 1807.4064 4313.8259 1803.803 4322.809 1811.8689 4332.242 1837.7686 4348.146 1881.3994 4363.801 1925.3815 4399.1306 1958.5086 4423.7585 1981.5922 4468.1325 1991.4926 4495.191 1979.8364 4509.769 1973.5569 4514.865 1963.0634 4513.7136 1947.9539 4512.5988 1933.4716 4504.2937 1924.6382 4492.034 1918.945 4477.562 1912.2254 4463.1179 1915.3858 4448.482 1919.3607 4428.985 1924.662 4414.857 1918.4777 4403.4636 1901.1217 4391.5895 1883.029 4384.3176 1862.7307 4375.791 1843.0597 4370.531 1830.8786 4366.184 1818.2886 4361.687 1805.7937 4358.08 1795.7401 4361.3566 1787.7592 4370.7419 1783.167 4434.7395 1751.8775 4472.5236 1697.9746 4499.572 1634.6693 4520.174 1586.4191 4531.3557 1536.2257 4527.1389 1483.6967 4518.469 1375.6663 4469.199 1292.4241 4373.691 1238.5964 4333.309 1215.8366 4289.76 1203.9146 4243.3337 1203.2634 4207.0056 1202.7589 4174.7067 1191.5462 4143.7 1172.325 4099.268 1144.789 4056.3055 1114.3517 4008.785 1092.3318 3940.6624 1060.7661 3869.3829 1041.4531 3792.973 1047.2896ZM3813.172 2046.6873V2046.6873C3774.7403 2059.1275 3738.0882 2056.1888 3704.0135 2033.4323 3672.5499 2012.4284 3652.4425 1983.5457 3644.983 1946.2083 3641.99 1931.286 3644.7718 1919.4902 3659.7005 1911.4209 3672.9488 1904.2682 3685.3856 1895.4489 3697.5289 1886.4689 3747.7735 1849.3156 3793.0887 1806.8301 3832.7513 1758.4877 3860.8568 1724.2529 3885.229 1687.6074 3901.6817 1646.2233 3907.1568 1632.4773 3912.0184 1618.5132 3914.2618 1603.6968 3914.9537 1599.0673 3916.6583 1592.1329 3922.3414 1591.9113 3928.4508 1591.6694 3927.438 1598.8218 3929.2005 1603.0219 3932.7838 1611.5822 3932.395 1620.9507 3934.7337 1629.6511 3945.125 1668.2125 3942.718 1707.7283 3943.543 1746.9035 3944.2589 1781.1045 3935.521 1814.3306 3929.5074 1847.8327 3920.766 1896.5225 3907.3782 1943.5219 3883.7015 1987.1867 3872.1309 2008.5043 3857.062 2026.4502 3834.0194 2036.2277 3834.4898 2036.3403 3834.9605 2036.446 3835.4273 2036.5518 3835.3216 2036.9812 3835.3355 2037.6972 3835.1 2037.803 3827.842 2040.8916 3821.9339 2047.3214 3813.172 2046.6873ZM4226.7585 1260.524V1260.524C4254.0456 1261.148 4280.6237 1261.8743 4306.9426 1268.3347 4375.3 1285.1113 4425.79 1322.6227 4453.0026 1389.1088 4474.204 1440.9147 4479.2536 1494.1732 4468.4255 1548.8056 4463.622 1573.0106 4456.9846 1596.7559 4448.4919 1620.1565 4432.568 1664.1249 4406.095 1699.6043 4368.6389 1726.9359 4321.6706 1761.2152 4266.915 1769.254 4211.175 1767.9314 4171.7478 1766.9937 4132.3205 1761.0891 4094.8533 1745.9865 4067.2286 1734.8519 4043.787 1717.8742 4027.2969 1694.18 4008.5018 1667.1898 3995.5946 1636.3536 3987.525 1604.2765 3980.6793 1577.0473 3972.2928 1549.8045 3972.5758 1521.3173 3972.9508 1484.8115 3980.5499 1449.5502 3992.8809 1415.2437 4004.7213 1382.2802 4021.6444 1352.2008 4044.5848 1325.7694 4056.07 1312.5247 4071.3026 1303.722 4085.2086 1293.3411 4102.03 1280.7748 4120.3747 1275.4769 4138.9069 1269.3268 4167.578 1259.822 4197.6198 1261.5778 4226.7585 1260.524ZM3546.9588 1885.9541V1885.9541C3535.2513 1886.3325 3517.2337 1883.4212 3499.4276 1876.4152 3465.5914 1863.0955 3438.7169 1845.3574 3425.622 1807.6654 3408.45 1758.2597 3428.513 1686.5097 3462.6663 1653.6892 3510.3848 1607.8255 3562.934 1570.6278 3628.7418 1555.5695 3658.4666 1548.7713 3687.8878 1547.4214 3717.8853 1555.4432 3744.627 1562.599 3771.3719 1569.9767 3799.4537 1571.7322 3823.4613 1573.2289 3847.2677 1574.17 3871.1558 1571.3745 3883.664 1569.9118 3886.7086 1575.561 3883.03 1586.6476 3879.7196 1596.6091 3877.4866 1607.0448 3873.1536 1616.529 3849.7938 1667.6841 3814.829 1711.1171 3778.361 1753.033 3754.517 1780.4293 3727.3389 1804.8291 3699.9154 1828.9491 3657.8326 1865.9557 3609.6776 1884.7063 3546.9588 1885.9541ZM4033.931 1152.7223V1152.7223C3987.3514 1176.4024 3961.9117 1219.1947 3937.635 1262.3003 3923.1868 1287.9616 3911.5477 1315.3269 3900.236 1342.5936 3888.9278 1369.8366 3880.9537 1398.6102 3874.1866 1427.0394 3867.8353 1453.6994 3863.1475 1481.3444 3860.41 1508.9727 3859.128 1521.8796 3853.612 1529.138 3838.9049 1528.7083 3818.8109 1528.1187 3798.7479 1530.2254 3778.8519 1524.6038 3766.8038 1521.1979 3759.5557 1516.0842 3759.9444 1502.294 3761.1888 1457.6403 3763.5855 1413.2697 3774.4027 1369.5606 3785.4417 1325.0296 3801.274 1282.6126 3824.5042 1243.0828 3850.4757 1198.9236 3883.6778 1160.8464 3921.2506 1126.0624 3937.0484 1111.4266 3954.558 1110.3358 3970.9769 1117.6415 3992.083 1127.0305 4015.4803 1132.9319 4033.931 1152.7223ZM3561.0318 1316.4656V1316.4656C3560.9603 1293.8185 3563.0057 1271.2666 3568.2286 1249.308 3572.1868 1232.6372 3577.7095 1216.1945 3584.0982 1200.2737 3596.511 1169.2908 3612.272 1139.1333 3643.0706 1123.6144 3686.514 1101.7106 3733.271 1089.9046 3782.5748 1091.5271 3786.0284 1091.643 3791.1624 1089.1477 3792.7137 1094.0159 3794.0635 1098.2911 3789.2125 1100.3876 3786.6146 1102.9241 3717.7899 1170.1364 3675.6624 1250.7775 3665.1146 1346.828 3663.0487 1365.6909 3657.4813 1384.445 3661.2279 1403.8569 3665.585 1426.47 3668.4383 1449.2911 3668.4383 1472.3816 3668.4486 1476.517 3670.436 1481.9069 3666.0316 1484.3035 3661.5213 1486.7617 3657.212 1484.0923 3652.947 1481.0717 3640.2955 1472.1192 3626.72 1464.4247 3614.3753 1455.0868 3597.3228 1442.1967 3579.8233 1428.853 3573.9388 1406.9285 3566.0093 1377.3709 3559.8079 1347.404 3561.0318 1316.4656" fill-rule="evenodd"/>
<path transform="matrix(1,0,0,-1,1,2096.0509)" d="M3083.8917 1295.2843C3109.0958 1295.9014 3127.6519 1277.2225 3138.2103 1257.0469 3145.0933 1243.925 3121.7574 1218.4651 3104.466 1219.0309 3088.8009 1219.5354 3074.6595 1224.3255 3062.2432 1234.0519 3050.7679 1243.042 3047.6109 1256.44 3053.236 1272.7123 3058.4283 1287.757 3069.0106 1295.5504 3083.8917 1295.2843" fill-rule="evenodd"/>
<path transform="matrix(1,0,0,-1,1,2096.0509)" d="M3250.26 1169.0011C3224.0775 1171.1353 3207.6009 1181.2229 3207.4713 1201.5658 3207.3656 1219.0003 3215.6329 1228.8325 3233.0643 1229.054 3245.5487 1229.2144 3258.1148 1229.6404 3270.5177 1228.4915 3285.5626 1227.1005 3297.498 1216.0175 3298.5174 1204.3134 3299.6217 1191.5768 3297.6956 1179.2254 3283.694 1175.5264 3272.8323 1172.6558 3261.9569 1168.1762 3250.26 1169.0011" fill-rule="evenodd"/>
<path transform="matrix(1,0,0,-1,1,2096.0509)" d="M2979.1475 1335.8742C2963.3153 1335.564 2949.9139 1351.0894 2949.7877 1369.9015 2949.6343 1391.5872 2966.5335 1410.6957 2986.7945 1411.7457 3002.3917 1412.564 3020.2318 1392.9987 3020.3272 1374.9673 3020.4193 1357.5396 2998.0003 1336.2457 2979.1475 1335.8742" fill-rule="evenodd"/>
<path transform="matrix(1,0,0,-1,1,2096.0509)" d="M4226.7585 1260.524C4197.6198 1261.5778 4167.578 1259.822 4138.9069 1269.3268 4120.3747 1275.4769 4102.03 1280.7748 4085.2086 1293.3411 4071.3026 1303.722 4056.07 1312.5247 4044.5848 1325.7694 4021.6444 1352.2008 4004.7213 1382.2802 3992.8809 1415.2437 3980.5499 1449.5502 3972.9508 1484.8115 3972.5758 1521.3173 3972.2928 1549.8045 3980.6793 1577.0473 3987.525 1604.2765 3995.5946 1636.3536 4008.5018 1667.1898 4027.2969 1694.18 4043.787 1717.8742 4067.2286 1734.8519 4094.8533 1745.9865 4132.3205 1761.0891 4171.7478 1766.9937 4211.175 1767.9314 4266.915 1769.254 4321.6706 1761.2152 4368.6389 1726.9359 4406.095 1699.6043 4432.568 1664.1249 4448.4919 1620.1565 4456.9846 1596.7559 4463.622 1573.0106 4468.4255 1548.8056 4479.2536 1494.1732 4474.204 1440.9147 4453.0026 1389.1088 4425.79 1322.6227 4375.3 1285.1113 4306.9426 1268.3347 4280.6237 1261.8743 4254.0456 1261.148 4226.7585 1260.524ZM4283.688 1401.2182V1401.2182C4294.2468 1402.1286 4304.5358 1401.8933 4314.272 1404.0785 4334.6867 1408.6469 4353.301 1416.5084 4363.426 1437.042 4369.0139 1448.3911 4365.669 1458.4586 4357.0715 1464.9769 4347.9689 1471.8872 4338.876 1467.1383 4332.464 1458.3563 4330.1628 1455.1994 4327.299 1452.99 4324.21 1450.6345 4304.44 1435.5964 4282.3249 1440.4819 4260.9489 1443.8534 4253.643 1445.006 4247.009 1451.5175 4244.837 1460.5892 4242.134 1471.8124 4230.682 1467.5542 4223.612 1471.1409 4217.328 1474.3318 4214.6149 1467.2713 4212.16 1463.0508 4205.372 1451.4287 4210.5275 1430.6394 4221.849 1422.0006 4240.269 1407.9546 4261.7028 1403.0219 4283.688 1401.2182ZM4239.444 1528.3536V1528.3536C4239.468 1549.2044 4218.351 1568.1084 4194.954 1568.2073 4171.9929 1568.2958 4155.796 1553.667 4155.997 1533.0277 4156.2189 1508.8123 4174.894 1490.2152 4198.782 1490.4266 4218.1877 1490.597 4239.4338 1510.4078 4239.444 1528.3536ZM4361.063 1499.9588V1499.9588C4382.1218 1499.9244 4404.1555 1520.8604 4404.4489 1541.1895 4404.721 1560.0764 4383.404 1578.462 4360.9816 1578.2644 4339.0539 1578.0631 4323.1159 1564.1572 4322.7746 1542.628 4322.3996 1518.9443 4339.6535 1499.9995 4361.063 1499.9588" fill="#ffcd17" fill-rule="evenodd"/>
<path transform="matrix(1,0,0,-1,1,2096.0509)" d="M4033.931 1152.7223C4015.4803 1132.9319 3992.083 1127.0305 3970.9769 1117.6415 3954.558 1110.3358 3937.0484 1111.4266 3921.2506 1126.0624 3883.6778 1160.8464 3850.4757 1198.9236 3824.5042 1243.0828 3801.274 1282.6126 3785.4417 1325.0296 3774.4027 1369.5606 3763.5855 1413.2697 3761.1888 1457.6403 3759.9444 1502.294 3759.5557 1516.0842 3766.8038 1521.1979 3778.8519 1524.6038 3798.7479 1530.2254 3818.8109 1528.1187 3838.9049 1528.7083 3853.612 1529.138 3859.128 1521.8796 3860.41 1508.9727 3863.1475 1481.3444 3867.8353 1453.6994 3874.1866 1427.0394 3880.9537 1398.6102 3888.9278 1369.8366 3900.236 1342.5936 3911.5477 1315.3269 3923.1868 1287.9616 3937.635 1262.3003 3961.9117 1219.1947 3987.3514 1176.4024 4033.931 1152.7223" fill="#ffcd17" fill-rule="evenodd"/>
<path transform="matrix(1,0,0,-1,1,2096.0509)" d="M3561.042 1316.4622C3559.8079 1347.404 3566.0093 1377.3709 3573.9388 1406.9285 3579.8233 1428.853 3597.3228 1442.1967 3614.3753 1455.0868 3626.72 1464.4247 3640.2955 1472.1192 3652.947 1481.0717 3657.212 1484.0923 3661.5213 1486.7617 3666.0316 1484.3035 3670.436 1481.9069 3668.4486 1476.517 3668.4383 1472.3816 3668.4383 1449.2911 3665.585 1426.47 3661.2279 1403.8569 3657.4813 1384.445 3663.0487 1365.6909 3665.1146 1346.828 3675.6624 1250.7775 3717.7899 1170.1364 3786.6146 1102.9241 3789.2125 1100.3876 3794.0635 1098.2911 3792.7137 1094.0159 3791.1624 1089.1477 3786.0284 1091.643 3782.5748 1091.5271 3733.271 1089.9046 3686.514 1101.7106 3643.0706 1123.6144 3612.272 1139.1333 3596.511 1169.2908 3584.0982 1200.2737 3577.7095 1216.1945 3572.1868 1232.6372 3568.2286 1249.308 3563.0057 1271.2666 3560.9603 1293.8185 3561.042 1316.4622" fill="#ffcd17" fill-rule="evenodd"/>
<path transform="matrix(1,0,0,-1,1,2096.0509)" d="M3834.0194 2036.2277C3827.91 2040.8202 3820.9825 2043.4929 3813.571 2045.0781 3813.1383 2045.1736 3812.7496 2045.518 3812.337 2045.7499 3812.596 2046.077 3812.855 2046.4078 3813.1383 2046.711 3821.9339 2047.3214 3827.842 2040.8916 3835.1 2037.803 3835.3355 2037.6972 3835.3216 2036.9812 3835.4273 2036.5518 3834.9605 2036.446 3834.4898 2036.3403 3834.0194 2036.2277" fill="#ffcd17" fill-rule="evenodd"/>
<path transform="matrix(1,0,0,-1,1,2096.0509)" d="M4283.688 1401.2182C4261.7028 1403.0219 4240.269 1407.9546 4221.849 1422.0006 4210.5275 1430.6394 4205.372 1451.4287 4212.16 1463.0508 4214.6149 1467.2713 4217.328 1474.3318 4223.612 1471.1409 4230.682 1467.5542 4242.134 1471.8124 4244.837 1460.5892 4247.009 1451.5175 4253.643 1445.006 4260.9489 1443.8534 4282.3249 1440.4819 4304.44 1435.5964 4324.21 1450.6345 4327.299 1452.99 4330.1628 1455.1994 4332.464 1458.3563 4338.876 1467.1383 4347.9689 1471.8872 4357.0715 1464.9769 4365.669 1458.4586 4369.0139 1448.3911 4363.426 1437.042 4353.301 1416.5084 4334.6867 1408.6469 4314.272 1404.0785 4304.5358 1401.8933 4294.2468 1402.1286 4283.688 1401.2182" fill-rule="evenodd"/>
<path transform="matrix(1,0,0,-1,1,2096.0509)" d="M4239.444 1528.3536C4239.4338 1510.4078 4218.1877 1490.597 4198.782 1490.4266 4174.894 1490.2152 4156.2189 1508.8123 4155.997 1533.0277 4155.796 1553.667 4171.9929 1568.2958 4194.954 1568.2073 4218.351 1568.1084 4239.468 1549.2044 4239.444 1528.3536" fill-rule="evenodd"/>
<path transform="matrix(1,0,0,-1,1,2096.0509)" d="M4361.063 1499.9588C4339.6535 1499.9995 4322.3996 1518.9443 4322.7746 1542.628 4323.1159 1564.1572 4339.0539 1578.0631 4360.9816 1578.2644 4383.404 1578.462 4404.721 1560.0764 4404.4489 1541.1895 4404.1555 1520.8604 4382.1218 1499.9244 4361.063 1499.9588" fill-rule="evenodd"/>
</svg>
